<svg width="98" height="81" viewBox="0 0 98 81" fill="none" xmlns="http://www.w3.org/2000/svg">
<path d="M26.1394 5.08379C25.6272 4.36067 24.6258 4.18969 23.9026 4.7019C23.1795 5.21411 23.0085 6.21555 23.5208 6.93867L26.1394 5.08379ZM39.7778 24.338L26.1394 5.08379L23.5208 6.93867L37.1592 26.1929L39.7778 24.338Z" fill="#DCB676"/>
<path d="M42.2108 9.13243C41.7192 8.39511 40.723 8.19587 39.9857 8.68742C39.2484 9.17897 39.0491 10.1752 39.5407 10.9125L42.2108 9.13243ZM51.8379 23.5731L42.2108 9.13243L39.5407 10.9125L49.1678 25.3532L51.8379 23.5731Z" fill="#DCB676"/>
<path d="M65.6988 2.27004C65.848 1.39652 65.2607 0.567503 64.3872 0.418366C63.5137 0.26923 62.6847 0.856453 62.5356 1.72996L65.6988 2.27004ZM61.7278 25.5287L65.6988 2.27004L62.5356 1.72996L58.5646 24.9886L61.7278 25.5287Z" fill="#DCB676"/>
<path d="M73.135 77.7583H76.3137V80.937H73.135V77.7583Z" fill="#DCB676"/>
<path d="M97.7965 55.5087L86.8982 30.0791H11.6922L0.793945 55.5087H9.56142V80.938H69.9566V77.7593H50.8845V39.4115L57.7831 55.5087H85.8501V77.7593H79.4929V80.938H89.0288V55.5087H97.7965ZM13.7882 33.2576H46.885L38.7115 52.3298H5.61476L13.7882 33.2576ZM12.7403 77.7591V55.5087H40.8074L47.706 39.4115V77.7591H12.7403ZM51.7056 33.2576H84.8024L92.9759 52.3298H59.8791L51.7056 33.2576Z" fill="#DCB676"/>
<path d="M15.9194 74.5805H38.1703V61.8657H15.9194V74.5805ZM19.0981 65.0444H34.9916V71.4018H19.0981V65.0444Z" fill="#DCB676"/>
</svg>
